<svg width="466" height="411" viewBox="0 0 466 411" fill="none" xmlns="http://www.w3.org/2000/svg">
<path d="M352.982 247.922L307.951 247.75L303.117 209.768C303.117 209.768 301.393 210.633 290.352 214.771C279.308 218.919 271.545 217.364 267.057 195.61C262.57 173.859 256.534 143.126 256.534 143.126L259.122 122.069L272.579 104.975L339.007 100.316L344.525 180.072L352.982 247.922Z" fill="white"/>
<path d="M246.956 339.763L209.946 316.716C209.946 316.716 221.075 296.257 228.323 282.79C235.568 269.326 244.368 254.306 256.015 250.164C267.661 246.02 293.022 235.145 293.022 235.145L299.494 217.793L315.021 224.53L320.459 241.36L325.634 224.787L354.101 214.169C354.101 214.169 357.981 225.822 365.751 229.191C373.514 232.555 377.655 234.108 399.132 241.878C420.615 249.646 443.906 256.122 451.153 278.13C458.399 300.142 465.128 320.083 465.128 320.083L451.414 326.816L418.806 401.136H252.858L246.956 339.763Z" fill="#FF8D82"/>
<path d="M451.415 326.816L441.063 400.875H345.304L300.789 376.794L300.939 374.098C298.697 391.475 260.156 390.518 260.156 390.518L247.734 395.958H229.614L229.827 395.697H229.283L232.725 401.393H75.8864L17.915 299.369H171.127L210.301 364.257L218.746 322.156L247.218 339.504L248.357 352.51L242.857 380.159C249.228 373.751 256.888 368.732 265.382 365.51L272.996 362.622C283.404 358.673 294.668 357.529 305.657 359.294L403.016 374.98L404.309 347.271L426.13 337.797L451.415 326.816Z" fill="white"/>
<path d="M266.714 163.675C272.419 163.675 277.062 168.322 277.062 174.032C277.062 179.741 272.419 184.388 266.714 184.388C266.286 184.388 265.869 184.354 265.452 184.302C264.137 177.808 262.793 171.116 261.582 165.051C263.099 164.178 264.844 163.675 266.714 163.675ZM252.911 172.994C253.429 197.856 258.257 212.011 268.438 219.95L275.446 215.179C275.833 215.461 276.229 215.726 276.634 215.95C280.145 217.887 284.45 217.727 290.595 215.42C297.986 212.648 301.214 211.34 302.552 210.773L303.769 219.899C303.818 220.246 304.112 220.499 304.455 220.499C304.484 220.499 304.517 220.499 304.546 220.495C304.926 220.443 305.191 220.092 305.142 219.712L303.802 209.675C303.773 209.454 303.639 209.262 303.442 209.156C303.243 209.053 303.009 209.049 302.809 209.147C302.737 209.184 300.894 210.078 290.106 214.126C284.376 216.273 280.428 216.46 277.304 214.738C272.995 212.357 269.957 206.236 267.735 195.471C267.098 192.372 266.424 189.085 265.742 185.724C266.062 185.751 266.387 185.773 266.714 185.773C273.182 185.773 278.447 180.505 278.447 174.032C278.447 167.558 273.182 162.29 266.714 162.29C264.759 162.29 262.92 162.777 261.299 163.623C259.763 155.915 258.469 149.378 257.77 145.84C261.549 140.705 266.338 132.471 267.057 122.928C267.057 122.928 277.756 152.278 322.444 156.768C322.444 156.768 333.312 201.825 330.379 215.118C330.379 215.118 337.918 213.505 347.183 209.597L347.918 216.073C347.962 216.453 348.305 216.718 348.685 216.683C349.065 216.638 349.339 216.295 349.295 215.915L348.514 209.024C356.891 205.353 366.417 199.84 372.996 191.984C387.314 174.893 367.128 143.82 367.128 143.82C367.128 143.82 370.926 123.447 359.88 104.46C357.64 100.605 355.151 96.8406 352.329 93.3823C357.923 90.6255 361.779 84.8799 361.779 78.2187C361.779 68.8746 354.211 61.2996 344.871 61.2996C335.766 61.2996 328.361 68.5083 327.998 77.529C319.664 75.7229 309.655 76.3522 297.423 80.6326C262.916 92.7199 255.499 106.356 254.288 127.419C253.082 148.48 253.082 151.416 253.082 151.416C253.082 151.416 253.135 151.366 253.164 151.335C252.882 156.655 252.716 163.78 252.911 172.994ZM262.279 159.473C262.565 159.317 269.347 155.687 275.58 160.355L274.754 161.466C269.221 157.324 263.01 160.653 262.949 160.686L262.279 159.473ZM286.152 158.493L285.229 157.46C285.459 157.252 291.023 152.371 300.135 156.659L299.543 157.912C291.298 154.033 286.361 158.31 286.152 158.493ZM293.433 196.806C293.479 196.276 293.361 195.851 293.137 195.725C292.903 195.594 292.359 195.666 291.53 196.259C287.097 199.456 282.212 199.664 282.007 199.67L281.955 198.285C282.004 198.285 286.639 198.076 290.721 195.136C292.248 194.037 293.25 194.197 293.822 194.519C294.549 194.936 294.911 195.81 294.814 196.925C294.619 199.138 292.593 202.176 288.598 203.602L288.133 202.294C291.551 201.073 293.275 198.595 293.433 196.806ZM279.993 179.131L278.067 193.576L283.926 191.672L284.352 192.991L276.404 195.573L278.618 178.948L279.993 179.131ZM267.575 177.048C267.575 176.142 268.307 175.408 269.213 175.408C270.117 175.408 270.851 176.142 270.851 177.048C270.851 177.952 270.117 178.687 269.213 178.687C268.307 178.687 267.575 177.952 267.575 177.048ZM294.136 174.804C294.136 175.71 293.401 176.444 292.498 176.444C291.592 176.444 290.858 175.71 290.858 174.804C290.858 173.9 291.592 173.165 292.498 173.165C293.401 173.165 294.136 173.9 294.136 174.804ZM293.629 181.451C287.921 181.451 283.277 176.809 283.277 171.098C283.277 165.386 287.921 160.743 293.629 160.743C299.334 160.743 303.977 165.386 303.977 171.098C303.977 176.809 299.334 181.451 293.629 181.451ZM305.362 171.098C305.362 164.622 300.098 159.358 293.629 159.358C287.157 159.358 281.893 164.622 281.893 171.098C281.893 177.568 287.157 182.837 293.629 182.837C300.098 182.837 305.362 177.568 305.362 171.098ZM351.476 297.81L379.583 299.793C379.453 303.996 378.064 327.216 363.669 327.216C360.63 327.216 358.104 326.101 356.168 323.905C350.025 316.958 351.149 301.208 351.476 297.81ZM363.669 328.601C370.807 328.601 376.064 323.455 378.88 313.72C380.956 306.521 380.984 299.446 380.984 299.152V298.504L350.251 296.335L350.169 296.988C350.07 297.781 347.846 316.582 355.126 324.823C357.342 327.331 360.217 328.601 363.669 328.601ZM315.588 224.928L302.577 243.205L292.609 235.7L293.438 234.589L302.275 241.241L314.46 224.123L315.588 224.928ZM338.175 243.211L325.071 225.193L326.193 224.38L338.456 241.237L359.631 224.756L360.48 225.853L338.175 243.211ZM315.327 336.556C316.581 336.556 317.606 337.581 317.606 338.839C317.606 340.1 316.581 341.123 315.327 341.123C314.069 341.123 313.044 340.1 313.044 338.839C313.044 337.581 314.069 336.556 315.327 336.556ZM315.327 342.51C317.348 342.51 318.99 340.864 318.99 338.839C318.99 336.817 317.348 335.171 315.327 335.171C313.301 335.171 311.659 336.817 311.659 338.839C311.659 340.864 313.301 342.51 315.327 342.51ZM322.412 280.246C323.836 280.246 324.989 281.405 324.989 282.829C324.989 284.252 323.836 285.411 322.412 285.411C320.987 285.411 319.834 284.252 319.834 282.829C319.834 281.405 320.987 280.246 322.412 280.246ZM322.412 286.796C324.6 286.796 326.38 285.015 326.38 282.829C326.38 280.641 324.6 278.861 322.412 278.861C320.227 278.861 318.447 280.641 318.447 282.829C318.447 285.015 320.227 286.796 322.412 286.796ZM110.068 355.509C110.068 348.606 115.658 343.009 122.563 343.009C129.462 343.009 135.055 348.606 135.055 355.509C135.055 362.414 129.462 368.009 122.563 368.009C115.658 368.009 110.068 362.414 110.068 355.509ZM170.735 300.06L209.456 364.59L209.358 365.073L209.8 365.167L209.906 365.342L231.488 400.7H76.2914L19.103 300.06H170.735ZM219.229 323.263L246.553 339.913L247.66 352.47L241.955 380.089C240.555 381.523 239.193 383.001 237.927 384.572L229.573 394.907L211.094 364.623L210.922 364.339L219.229 323.263ZM265.627 366.158L273.241 363.271C283.523 359.368 294.695 358.237 305.545 359.98L402.909 375.666C403.102 375.691 403.3 375.645 403.452 375.518C403.604 375.393 403.698 375.212 403.709 375.013L404.983 347.737L450.554 327.942L440.459 400.182H345.477L301.196 376.225C301.594 374.928 301.777 373.558 301.74 372.116C301.728 371.732 301.368 371.448 301.029 371.44C300.645 371.448 300.343 371.769 300.355 372.153C300.444 375.391 299.274 378.248 296.888 380.64C287.173 390.38 260.446 389.84 260.172 389.824C260.082 389.82 259.971 389.844 259.878 389.885L247.59 395.264H231.067L239.002 385.443C246.006 376.777 255.211 370.108 265.627 366.158ZM250.646 395.435L260.294 391.214C262.733 391.258 288.014 391.494 297.868 381.62C299.114 380.371 300.061 379.005 300.707 377.536L344.431 401.193H310.454V395.435H250.646ZM441.672 401.193C441.709 401.125 441.736 401.05 441.746 400.973L452.098 326.914C452.133 326.664 452.032 326.417 451.831 326.261C451.629 326.113 451.37 326.082 451.138 326.179L404.946 346.243L402.566 304.424L401.185 304.502L403.616 347.279L402.362 374.172L305.765 358.613C294.671 356.824 283.258 357.987 272.754 361.973L265.134 364.861C257.17 367.883 249.898 372.461 243.743 378.285L249.037 352.647L249.056 352.547L247.921 339.607L267.702 289.009L266.412 288.503L246.871 338.483L218.265 321.049L209.865 362.577L171.518 298.675H16.7229L74.9767 401.193H0V410.716H459.305V401.193H441.672Z" fill="#100F0D"/>
</svg>
